<?xml version="1.0" standalone="no"?>
<!DOCTYPE svg PUBLIC "-//W3C//DTD SVG 20010904//EN"
 "http://www.w3.org/TR/2001/REC-SVG-20010904/DTD/svg10.dtd">
<svg version="1.0" xmlns="http://www.w3.org/2000/svg"
 width="500.000000pt" height="500.000000pt" viewBox="0 0 500.000000 500.000000"
 preserveAspectRatio="xMidYMid meet">
<metadata>
Created by potrace 1.11, written by Peter Selinger 2001-2013
</metadata>
<g transform="translate(0.000000,500.000000) scale(0.100000,-0.100000)"
fill="#000000" stroke="none">
<path d="M2383 4045 c-130 -35 -236 -119 -296 -232 -47 -90 -50 -105 -57 -294
0 -4 -17 -10 -37 -14 -71 -13 -198 -57 -293 -102 -374 -175 -658 -515 -764
-913 -34 -130 -37 -152 -41 -335 -2 -122 1 -184 15 -262 86 -492 413 -891 883
-1077 192 -76 454 -108 677 -83 213 25 459 121 650 255 92 65 267 243 330 336
49 73 128 220 157 291 17 41 60 187 66 222 24 139 28 181 29 268 1 113 -7 210
-27 302 l-13 63 55 31 c112 64 240 210 294 335 173 404 -48 870 -469 991 -173
50 -372 31 -531 -51 l-65 -33 -27 58 c-90 189 -331 299 -536 244z m231 -27
c122 -39 231 -128 280 -230 l28 -58 -73 -69 c-41 -38 -90 -94 -109 -125 -27
-42 -40 -54 -55 -51 -72 15 -175 36 -200 41 -55 10 -240 12 -330 4 -49 -5 -91
-7 -93 -5 -2 2 -3 34 -3 72 1 183 117 344 296 409 66 24 201 30 259 12z"/>
</g>
</svg>
